<mxfile host="Electron" modified="2023-12-30T13:12:19.613Z" agent="Mozilla/5.0 (X11; Linux x86_64) AppleWebKit/537.36 (KHTML, like Gecko) draw.io/22.1.16 Chrome/120.0.6099.109 Electron/28.1.0 Safari/537.36" etag="4zlv8z8tDRsACYNS8WMC" version="22.1.16" type="device">
  <diagram name="Page-1" id="74e2e168-ea6b-b213-b513-2b3c1d86103e">
    <mxGraphModel dx="1434" dy="843" grid="1" gridSize="10" guides="1" tooltips="1" connect="1" arrows="1" fold="1" page="1" pageScale="1" pageWidth="1100" pageHeight="850" background="none" math="0" shadow="0">
      <root>
        <mxCell id="0" />
        <mxCell id="1" parent="0" />
        <mxCell id="uQnDdRh6O_mBgokh-bdZ-1" value="Records" style="strokeColor=#BAC8D3;fillColor=#23445D;fontSize=24;strokeWidth=2;fontFamily=Helvetica;html=1;fontColor=#FFFFFF;fontStyle=0;spacingBottom=8;spacingRight=0;spacingLeft=83;" parent="1" vertex="1">
          <mxGeometry x="28" y="20" width="1372" height="50" as="geometry" />
        </mxCell>
        <mxCell id="uQnDdRh6O_mBgokh-bdZ-2" value="Lane 1" style="strokeColor=#BAC8D3;fillColor=#23445D;fontSize=24;strokeWidth=2;horizontal=0;fontFamily=Helvetica;html=1;fontColor=#FFFFFF;fontStyle=0" parent="1" vertex="1">
          <mxGeometry x="20" y="100" width="50" height="300" as="geometry" />
        </mxCell>
        <mxCell id="uQnDdRh6O_mBgokh-bdZ-3" value="Lane 1.1" style="strokeColor=#BAC8D3;fillColor=#5d7f99;fontSize=19;strokeWidth=2;horizontal=0;fontFamily=Helvetica;html=1;labelBackgroundColor=none;fontColor=#FFFFFF;" parent="1" vertex="1">
          <mxGeometry x="70" y="100" width="40" height="100" as="geometry" />
        </mxCell>
        <mxCell id="uQnDdRh6O_mBgokh-bdZ-4" value="v 1.0" style="strokeColor=#BAC8D3;fillColor=#5d7f99;fontSize=19;strokeWidth=2;fontFamily=Helvetica;html=1;labelBackgroundColor=none;fontColor=#FFFFFF;" parent="1" vertex="1">
          <mxGeometry x="20" y="20" width="90" height="80" as="geometry" />
        </mxCell>
        <mxCell id="uQnDdRh6O_mBgokh-bdZ-5" value="Lane 1.2" style="strokeColor=#BAC8D3;fillColor=#5d7f99;fontSize=19;strokeWidth=2;horizontal=0;fontFamily=Helvetica;html=1;labelBackgroundColor=none;fontColor=#FFFFFF;" parent="1" vertex="1">
          <mxGeometry x="70" y="200" width="40" height="100" as="geometry" />
        </mxCell>
        <mxCell id="uQnDdRh6O_mBgokh-bdZ-6" value="Lane 1.3" style="strokeColor=#BAC8D3;fillColor=#5d7f99;fontSize=19;strokeWidth=2;horizontal=0;fontFamily=Helvetica;html=1;labelBackgroundColor=none;fontColor=#FFFFFF;" parent="1" vertex="1">
          <mxGeometry x="70" y="300" width="40" height="100" as="geometry" />
        </mxCell>
        <mxCell id="uQnDdRh6O_mBgokh-bdZ-8" value="Lane 2.1" style="strokeColor=#BAC8D3;fillColor=#5d7f99;fontSize=19;strokeWidth=2;horizontal=0;fontFamily=Helvetica;html=1;labelBackgroundColor=none;fontColor=#FFFFFF;" parent="1" vertex="1">
          <mxGeometry x="70" y="400" width="40" height="200" as="geometry" />
        </mxCell>
        <mxCell id="uQnDdRh6O_mBgokh-bdZ-9" value="Lane 2" style="strokeColor=#BAC8D3;fillColor=#23445D;fontSize=24;strokeWidth=2;horizontal=0;fontFamily=Helvetica;html=1;fontColor=#FFFFFF;fontStyle=0" parent="1" vertex="1">
          <mxGeometry x="20" y="400" width="50" height="200" as="geometry" />
        </mxCell>
        <mxCell id="uQnDdRh6O_mBgokh-bdZ-10" value="Lane 3.2" style="strokeColor=#BAC8D3;fillColor=#5d7f99;fontSize=19;strokeWidth=2;horizontal=0;fontFamily=Helvetica;html=1;labelBackgroundColor=none;fontColor=#FFFFFF;" parent="1" vertex="1">
          <mxGeometry x="70" y="700" width="40" height="100" as="geometry" />
        </mxCell>
        <mxCell id="uQnDdRh6O_mBgokh-bdZ-11" value="Lane 3.1" style="strokeColor=#BAC8D3;fillColor=#5d7f99;fontSize=19;strokeWidth=2;horizontal=0;fontFamily=Helvetica;html=1;labelBackgroundColor=none;fontColor=#FFFFFF;" parent="1" vertex="1">
          <mxGeometry x="70" y="600" width="40" height="100" as="geometry" />
        </mxCell>
        <mxCell id="uQnDdRh6O_mBgokh-bdZ-12" value="Lane 3" style="strokeColor=#BAC8D3;fillColor=#23445D;fontSize=24;strokeWidth=2;horizontal=0;fontFamily=Helvetica;html=1;fontColor=#FFFFFF;fontStyle=0" parent="1" vertex="1">
          <mxGeometry x="20" y="600" width="50" height="200" as="geometry" />
        </mxCell>
        <mxCell id="uQnDdRh6O_mBgokh-bdZ-17" value="" style="strokeColor=#FFFFFF;fillColor=#BAC8D3;fontSize=18;strokeWidth=2;fontFamily=Helvetica;html=1;opacity=60;" parent="1" vertex="1">
          <mxGeometry x="110" y="400" width="646.67" height="300" as="geometry" />
        </mxCell>
        <mxCell id="uQnDdRh6O_mBgokh-bdZ-19" value="" style="strokeColor=#FFFFFF;fillColor=#BAC8D3;fontSize=18;strokeWidth=2;fontFamily=Helvetica;html=1;opacity=60;" parent="1" vertex="1">
          <mxGeometry x="110" y="700" width="646.6666666666666" height="100" as="geometry" />
        </mxCell>
        <mxCell id="uQnDdRh6O_mBgokh-bdZ-24" value="" style="strokeColor=#FFFFFF;fillColor=#BAC8D3;fontSize=18;strokeWidth=2;fontFamily=Helvetica;html=1;opacity=60;" parent="1" vertex="1">
          <mxGeometry x="756.67" y="400" width="653.33" height="300" as="geometry" />
        </mxCell>
        <mxCell id="uQnDdRh6O_mBgokh-bdZ-26" value="" style="strokeColor=#FFFFFF;fillColor=#BAC8D3;fontSize=18;strokeWidth=2;fontFamily=Helvetica;html=1;opacity=60;fontStyle=4" parent="1" vertex="1">
          <mxGeometry x="756.6666666666666" y="700" width="646.6666666666666" height="100" as="geometry" />
        </mxCell>
        <mxCell id="uQnDdRh6O_mBgokh-bdZ-27" value="" style="strokeColor=#FFFFFF;fillColor=#BAC8D3;fontSize=18;strokeWidth=2;fontFamily=Helvetica;html=1;opacity=60;" parent="1" vertex="1">
          <mxGeometry x="1403.3333333333333" y="100" width="647" height="100" as="geometry" />
        </mxCell>
        <mxCell id="uQnDdRh6O_mBgokh-bdZ-28" value="" style="strokeColor=#FFFFFF;fillColor=#BAC8D3;fontSize=18;strokeWidth=2;fontFamily=Helvetica;html=1;opacity=90;" parent="1" vertex="1">
          <mxGeometry x="1403.3333333333333" y="200" width="646.6666666666666" height="100" as="geometry" />
        </mxCell>
        <mxCell id="uQnDdRh6O_mBgokh-bdZ-29" value="" style="strokeColor=#FFFFFF;fillColor=#BAC8D3;fontSize=18;strokeWidth=2;fontFamily=Helvetica;html=1;opacity=60;" parent="1" vertex="1">
          <mxGeometry x="1403.3333333333333" y="300" width="646.6666666666666" height="100" as="geometry" />
        </mxCell>
        <mxCell id="uQnDdRh6O_mBgokh-bdZ-30" value="" style="strokeColor=#FFFFFF;fillColor=#BAC8D3;fontSize=18;strokeWidth=2;fontFamily=Helvetica;html=1;opacity=90;" parent="1" vertex="1">
          <mxGeometry x="1403.3333333333333" y="400" width="646.6666666666666" height="100" as="geometry" />
        </mxCell>
        <mxCell id="uQnDdRh6O_mBgokh-bdZ-31" value="" style="strokeColor=#FFFFFF;fillColor=#BAC8D3;fontSize=18;strokeWidth=2;fontFamily=Helvetica;html=1;opacity=60;" parent="1" vertex="1">
          <mxGeometry x="1403.3333333333333" y="500" width="646.6666666666666" height="100" as="geometry" />
        </mxCell>
        <mxCell id="uQnDdRh6O_mBgokh-bdZ-32" value="" style="strokeColor=#FFFFFF;fillColor=#BAC8D3;fontSize=18;strokeWidth=2;fontFamily=Helvetica;html=1;opacity=90;" parent="1" vertex="1">
          <mxGeometry x="1403.3333333333333" y="600" width="646.6666666666666" height="100" as="geometry" />
        </mxCell>
        <mxCell id="uQnDdRh6O_mBgokh-bdZ-33" value="" style="strokeColor=#FFFFFF;fillColor=#BAC8D3;fontSize=18;strokeWidth=2;fontFamily=Helvetica;html=1;opacity=60;fontStyle=4" parent="1" vertex="1">
          <mxGeometry x="1403.3333333333333" y="700" width="646.6666666666666" height="100" as="geometry" />
        </mxCell>
        <mxCell id="F1mjMvXz6jdHSFvcHocM-22" style="edgeStyle=orthogonalEdgeStyle;rounded=0;orthogonalLoop=1;jettySize=auto;html=1;exitX=1;exitY=0.5;exitDx=0;exitDy=0;entryX=0;entryY=0.5;entryDx=0;entryDy=0;" edge="1" parent="1" source="uQnDdRh6O_mBgokh-bdZ-35" target="F1mjMvXz6jdHSFvcHocM-1">
          <mxGeometry relative="1" as="geometry" />
        </mxCell>
        <mxCell id="uQnDdRh6O_mBgokh-bdZ-35" value="Список&lt;br&gt;&amp;nbsp;специализации" style="rounded=1;fillColor=#23445D;strokeColor=none;strokeWidth=2;fontFamily=Helvetica;html=1;gradientColor=none;" parent="1" vertex="1">
          <mxGeometry x="136.39" y="120" width="127" height="80" as="geometry" />
        </mxCell>
        <mxCell id="F1mjMvXz6jdHSFvcHocM-27" style="edgeStyle=orthogonalEdgeStyle;rounded=0;orthogonalLoop=1;jettySize=auto;html=1;exitX=1;exitY=0.5;exitDx=0;exitDy=0;entryX=0;entryY=0.5;entryDx=0;entryDy=0;" edge="1" parent="1" source="uQnDdRh6O_mBgokh-bdZ-36" target="F1mjMvXz6jdHSFvcHocM-24">
          <mxGeometry relative="1" as="geometry" />
        </mxCell>
        <mxCell id="uQnDdRh6O_mBgokh-bdZ-36" value="Список свободных дат,&lt;br&gt;кол-во свободных&lt;br&gt;&amp;nbsp;записей в дате" style="rounded=1;fillColor=#23445D;strokeColor=none;strokeWidth=2;fontFamily=Helvetica;html=1;gradientColor=none;" parent="1" vertex="1">
          <mxGeometry x="700" y="120" width="160" height="80" as="geometry" />
        </mxCell>
        <mxCell id="F1mjMvXz6jdHSFvcHocM-21" style="edgeStyle=orthogonalEdgeStyle;rounded=0;orthogonalLoop=1;jettySize=auto;html=1;entryX=0;entryY=0.5;entryDx=0;entryDy=0;" edge="1" parent="1" source="uQnDdRh6O_mBgokh-bdZ-37" target="uQnDdRh6O_mBgokh-bdZ-36">
          <mxGeometry relative="1" as="geometry" />
        </mxCell>
        <mxCell id="uQnDdRh6O_mBgokh-bdZ-37" value="Выбор специалиста,&lt;br&gt;кол-во свободных&lt;br&gt;&amp;nbsp;записей на 2 недели&amp;nbsp;" style="rounded=1;fillColor=#23445D;strokeColor=none;strokeWidth=2;fontFamily=Helvetica;html=1;gradientColor=none;" parent="1" vertex="1">
          <mxGeometry x="520" y="120" width="130" height="80" as="geometry" />
        </mxCell>
        <mxCell id="uQnDdRh6O_mBgokh-bdZ-44" value="" style="rounded=1;fillColor=#23445D;strokeColor=none;strokeWidth=2;gradientColor=none;fontFamily=Helvetica;html=1;" parent="1" vertex="1">
          <mxGeometry x="1895.2380952380954" y="625" width="127" height="50" as="geometry" />
        </mxCell>
        <mxCell id="uQnDdRh6O_mBgokh-bdZ-46" value="" style="rounded=1;fillColor=#23445D;strokeColor=none;strokeWidth=2;fontFamily=Helvetica;html=1;gradientColor=none;" parent="1" vertex="1">
          <mxGeometry x="1027.4149659863945" y="725" width="127" height="50" as="geometry" />
        </mxCell>
        <mxCell id="uQnDdRh6O_mBgokh-bdZ-51" value="" style="rounded=1;fillColor=#23445D;strokeColor=none;strokeWidth=2;gradientColor=none;fontFamily=Helvetica;html=1;" parent="1" vertex="1">
          <mxGeometry x="1452.9251700680272" y="525" width="127" height="50" as="geometry" />
        </mxCell>
        <mxCell id="uQnDdRh6O_mBgokh-bdZ-52" value="" style="rounded=1;fillColor=#23445D;strokeColor=none;strokeWidth=2;gradientColor=none;fontFamily=Helvetica;html=1;" parent="1" vertex="1">
          <mxGeometry x="1674.0816326530612" y="525" width="127" height="50" as="geometry" />
        </mxCell>
        <mxCell id="uQnDdRh6O_mBgokh-bdZ-53" value="" style="rounded=1;fillColor=#23445D;strokeColor=none;strokeWidth=2;gradientColor=none;fontFamily=Helvetica;html=1;" parent="1" vertex="1">
          <mxGeometry x="1439.7278911564624" y="225" width="127" height="50" as="geometry" />
        </mxCell>
        <mxCell id="uQnDdRh6O_mBgokh-bdZ-54" value="" style="rounded=1;fillColor=#23445D;strokeColor=none;strokeWidth=2;gradientColor=none;fontFamily=Helvetica;html=1;" parent="1" vertex="1">
          <mxGeometry x="1452.9251700680272" y="625" width="127" height="50" as="geometry" />
        </mxCell>
        <mxCell id="uQnDdRh6O_mBgokh-bdZ-55" value="" style="rounded=1;fillColor=#23445D;strokeColor=none;strokeWidth=2;gradientColor=none;fontFamily=Helvetica;html=1;" parent="1" vertex="1">
          <mxGeometry x="1674.0816326530612" y="725" width="127" height="50" as="geometry" />
        </mxCell>
        <mxCell id="uQnDdRh6O_mBgokh-bdZ-56" value="" style="rounded=1;fillColor=#23445D;strokeColor=none;strokeWidth=2;gradientColor=none;fontFamily=Helvetica;html=1;" parent="1" vertex="1">
          <mxGeometry x="1674.0816326530612" y="125" width="127" height="50" as="geometry" />
        </mxCell>
        <mxCell id="uQnDdRh6O_mBgokh-bdZ-71" value="" style="edgeStyle=elbowEdgeStyle;elbow=horizontal;strokeWidth=3;strokeColor=#0C343D;fontFamily=Helvetica;html=1;rounded=0;" parent="1" source="uQnDdRh6O_mBgokh-bdZ-46" target="uQnDdRh6O_mBgokh-bdZ-55" edge="1">
          <mxGeometry x="6.448979591836746" y="830.5" width="131.97278911564624" height="100" as="geometry">
            <mxPoint x="-127.55102040816325" y="100" as="sourcePoint" />
            <mxPoint x="4.421768707483011" as="targetPoint" />
          </mxGeometry>
        </mxCell>
        <mxCell id="uQnDdRh6O_mBgokh-bdZ-72" value="" style="edgeStyle=elbowEdgeStyle;elbow=horizontal;strokeWidth=3;strokeColor=#0C343D;fontFamily=Helvetica;html=1;rounded=0;" parent="1" source="uQnDdRh6O_mBgokh-bdZ-55" target="uQnDdRh6O_mBgokh-bdZ-44" edge="1">
          <mxGeometry x="6.448979591836746" y="830.5" width="131.97278911564624" height="100" as="geometry">
            <mxPoint x="-127.55102040816325" y="100" as="sourcePoint" />
            <mxPoint x="4.421768707483011" as="targetPoint" />
          </mxGeometry>
        </mxCell>
        <mxCell id="uQnDdRh6O_mBgokh-bdZ-73" value="" style="edgeStyle=elbowEdgeStyle;elbow=horizontal;strokeWidth=3;strokeColor=#0C343D;fontFamily=Helvetica;html=1;rounded=0;" parent="1" source="uQnDdRh6O_mBgokh-bdZ-53" target="uQnDdRh6O_mBgokh-bdZ-44" edge="1">
          <mxGeometry x="6.448979591836746" y="830.5" width="131.97278911564624" height="100" as="geometry">
            <mxPoint x="-127.55102040816325" y="100" as="sourcePoint" />
            <mxPoint x="4.421768707483011" as="targetPoint" />
            <Array as="points">
              <mxPoint x="1642" y="450" />
            </Array>
          </mxGeometry>
        </mxCell>
        <mxCell id="uQnDdRh6O_mBgokh-bdZ-74" value="" style="edgeStyle=elbowEdgeStyle;elbow=horizontal;strokeWidth=3;strokeColor=#0C343D;fontFamily=Helvetica;html=1;rounded=0;" parent="1" source="uQnDdRh6O_mBgokh-bdZ-54" target="uQnDdRh6O_mBgokh-bdZ-55" edge="1">
          <mxGeometry x="6.448979591836746" y="830.5" width="131.97278911564624" height="100" as="geometry">
            <mxPoint x="-127.55102040816325" y="100" as="sourcePoint" />
            <mxPoint x="4.421768707483011" as="targetPoint" />
          </mxGeometry>
        </mxCell>
        <mxCell id="uQnDdRh6O_mBgokh-bdZ-78" value="" style="edgeStyle=elbowEdgeStyle;elbow=horizontal;strokeWidth=3;strokeColor=#0C343D;fontFamily=Helvetica;html=1;rounded=0;" parent="1" target="uQnDdRh6O_mBgokh-bdZ-53" edge="1">
          <mxGeometry x="6.448979591836746" y="830.5" width="131.97278911564624" height="100" as="geometry">
            <mxPoint x="1154.4149659863942" y="250" as="sourcePoint" />
            <mxPoint x="4.421768707483011" as="targetPoint" />
          </mxGeometry>
        </mxCell>
        <mxCell id="uQnDdRh6O_mBgokh-bdZ-79" value="" style="edgeStyle=elbowEdgeStyle;elbow=horizontal;strokeWidth=3;strokeColor=#0C343D;fontFamily=Helvetica;html=1;rounded=0;" parent="1" target="uQnDdRh6O_mBgokh-bdZ-53" edge="1">
          <mxGeometry x="6.448979591836746" y="830.5" width="131.97278911564624" height="100" as="geometry">
            <mxPoint x="1365.5714285714284" y="150" as="sourcePoint" />
            <mxPoint x="4.421768707483011" as="targetPoint" />
            <Array as="points">
              <mxPoint x="1390.1360544217687" y="200" />
            </Array>
          </mxGeometry>
        </mxCell>
        <mxCell id="uQnDdRh6O_mBgokh-bdZ-80" value="" style="edgeStyle=elbowEdgeStyle;elbow=horizontal;strokeWidth=3;strokeColor=#0C343D;fontFamily=Helvetica;html=1;rounded=0;" parent="1" target="uQnDdRh6O_mBgokh-bdZ-56" edge="1">
          <mxGeometry x="6.448979591836746" y="830.5" width="131.97278911564624" height="100" as="geometry">
            <mxPoint x="1365.5714285714284" y="150" as="sourcePoint" />
            <mxPoint x="4.421768707483011" as="targetPoint" />
          </mxGeometry>
        </mxCell>
        <mxCell id="uQnDdRh6O_mBgokh-bdZ-81" value="" style="edgeStyle=elbowEdgeStyle;elbow=horizontal;strokeWidth=3;strokeColor=#0C343D;fontFamily=Helvetica;html=1;rounded=0;" parent="1" source="uQnDdRh6O_mBgokh-bdZ-56" target="uQnDdRh6O_mBgokh-bdZ-44" edge="1">
          <mxGeometry x="6.448979591836746" y="830.5" width="131.97278911564624" height="100" as="geometry">
            <mxPoint x="-127.55102040816325" y="100" as="sourcePoint" />
            <mxPoint x="4.421768707483011" as="targetPoint" />
          </mxGeometry>
        </mxCell>
        <mxCell id="uQnDdRh6O_mBgokh-bdZ-82" value="" style="edgeStyle=elbowEdgeStyle;elbow=horizontal;strokeWidth=3;strokeColor=#0C343D;fontFamily=Helvetica;html=1;rounded=0;" parent="1" source="uQnDdRh6O_mBgokh-bdZ-52" target="uQnDdRh6O_mBgokh-bdZ-44" edge="1">
          <mxGeometry x="6.448979591836746" y="830.5" width="131.97278911564624" height="100" as="geometry">
            <mxPoint x="-127.55102040816325" y="100" as="sourcePoint" />
            <mxPoint x="4.421768707483011" as="targetPoint" />
          </mxGeometry>
        </mxCell>
        <mxCell id="uQnDdRh6O_mBgokh-bdZ-83" value="" style="edgeStyle=elbowEdgeStyle;elbow=horizontal;strokeWidth=3;strokeColor=#0C343D;fontFamily=Helvetica;html=1;rounded=0;" parent="1" source="uQnDdRh6O_mBgokh-bdZ-51" target="uQnDdRh6O_mBgokh-bdZ-52" edge="1">
          <mxGeometry x="6.448979591836746" y="830.5" width="131.97278911564624" height="100" as="geometry">
            <mxPoint x="-127.55102040816325" y="100" as="sourcePoint" />
            <mxPoint x="4.421768707483011" as="targetPoint" />
          </mxGeometry>
        </mxCell>
        <mxCell id="uQnDdRh6O_mBgokh-bdZ-84" value="" style="edgeStyle=elbowEdgeStyle;elbow=horizontal;strokeWidth=3;strokeColor=#0C343D;fontFamily=Helvetica;html=1;rounded=0;" parent="1" target="uQnDdRh6O_mBgokh-bdZ-51" edge="1">
          <mxGeometry x="6.448979591836746" y="830.5" width="131.97278911564624" height="100" as="geometry">
            <mxPoint x="1365.5714285714284" y="350" as="sourcePoint" />
            <mxPoint x="4.421768707483011" as="targetPoint" />
            <Array as="points">
              <mxPoint x="1390.1360544217687" y="450" />
            </Array>
          </mxGeometry>
        </mxCell>
        <mxCell id="uQnDdRh6O_mBgokh-bdZ-85" value="" style="group" parent="1" vertex="1" connectable="0">
          <mxGeometry x="110" y="60" width="1290" height="40" as="geometry" />
        </mxCell>
        <mxCell id="uQnDdRh6O_mBgokh-bdZ-86" value="Шаги пользователя(тг)" style="strokeColor=#BAC8D3;fillColor=#5d7f99;fontSize=19;strokeWidth=2;fontFamily=Helvetica;html=1;labelBackgroundColor=none;fontColor=#FFFFFF;" parent="uQnDdRh6O_mBgokh-bdZ-85" vertex="1">
          <mxGeometry width="1289.9979445179183" height="40" as="geometry" />
        </mxCell>
        <mxCell id="uQnDdRh6O_mBgokh-bdZ-88" value="Milestone 3" style="strokeColor=#BAC8D3;fillColor=#5d7f99;fontSize=19;strokeWidth=2;fontFamily=Helvetica;html=1;labelBackgroundColor=none;fontColor=#FFFFFF;" parent="uQnDdRh6O_mBgokh-bdZ-85" vertex="1">
          <mxGeometry x="2579.995889035836" width="1290" height="40" as="geometry" />
        </mxCell>
        <mxCell id="F1mjMvXz6jdHSFvcHocM-6" style="edgeStyle=orthogonalEdgeStyle;rounded=0;orthogonalLoop=1;jettySize=auto;html=1;exitX=1;exitY=0.5;exitDx=0;exitDy=0;entryX=0;entryY=0.5;entryDx=0;entryDy=0;" edge="1" parent="1" source="uQnDdRh6O_mBgokh-bdZ-89" target="F1mjMvXz6jdHSFvcHocM-5">
          <mxGeometry relative="1" as="geometry" />
        </mxCell>
        <mxCell id="uQnDdRh6O_mBgokh-bdZ-89" value="Парикмахер" style="rounded=1;fillColor=#23445D;strokeColor=none;strokeWidth=2;fontFamily=Helvetica;html=1;gradientColor=none;" parent="1" vertex="1">
          <mxGeometry x="136.39455782312928" y="425" width="127" height="50" as="geometry" />
        </mxCell>
        <mxCell id="uQnDdRh6O_mBgokh-bdZ-90" value="&lt;h4 style=&quot;text-align: justify; line-height: 100%;&quot;&gt;&lt;span style=&quot;background-color: initial;&quot;&gt;Петров Петр Петрович&lt;/span&gt;&lt;/h4&gt;&lt;div&gt;&amp;nbsp;кол-во записей(35)&lt;/div&gt;" style="rounded=1;fillColor=#23445D;strokeColor=none;strokeWidth=2;fontFamily=Helvetica;html=1;gradientColor=none;arcSize=15;verticalAlign=top;" parent="1" vertex="1">
          <mxGeometry x="500" y="425" width="140" height="85" as="geometry" />
        </mxCell>
        <mxCell id="F1mjMvXz6jdHSFvcHocM-23" style="edgeStyle=orthogonalEdgeStyle;rounded=0;orthogonalLoop=1;jettySize=auto;html=1;exitX=1;exitY=0.5;exitDx=0;exitDy=0;entryX=0;entryY=0.5;entryDx=0;entryDy=0;" edge="1" parent="1" source="F1mjMvXz6jdHSFvcHocM-1" target="uQnDdRh6O_mBgokh-bdZ-37">
          <mxGeometry relative="1" as="geometry" />
        </mxCell>
        <mxCell id="F1mjMvXz6jdHSFvcHocM-1" value="список услуг&lt;br&gt;&amp;nbsp;отфильтрованный &lt;br&gt;по специализации" style="rounded=1;fillColor=#23445D;strokeColor=none;strokeWidth=2;fontFamily=Helvetica;html=1;gradientColor=none;" vertex="1" parent="1">
          <mxGeometry x="310" y="117.5" width="150" height="85" as="geometry" />
        </mxCell>
        <mxCell id="F1mjMvXz6jdHSFvcHocM-32" style="edgeStyle=orthogonalEdgeStyle;rounded=0;orthogonalLoop=1;jettySize=auto;html=1;exitX=1;exitY=0.5;exitDx=0;exitDy=0;entryX=0;entryY=0.25;entryDx=0;entryDy=0;" edge="1" parent="1" source="F1mjMvXz6jdHSFvcHocM-5" target="uQnDdRh6O_mBgokh-bdZ-90">
          <mxGeometry relative="1" as="geometry" />
        </mxCell>
        <mxCell id="F1mjMvXz6jdHSFvcHocM-5" value="Мужская стрижка" style="rounded=1;fillColor=#23445D;strokeColor=none;strokeWidth=2;fontFamily=Helvetica;html=1;gradientColor=none;" vertex="1" parent="1">
          <mxGeometry x="320.0037414965986" y="425" width="127" height="50" as="geometry" />
        </mxCell>
        <mxCell id="F1mjMvXz6jdHSFvcHocM-94" style="edgeStyle=orthogonalEdgeStyle;rounded=0;orthogonalLoop=1;jettySize=auto;html=1;entryX=0;entryY=0.5;entryDx=0;entryDy=0;" edge="1" parent="1" source="F1mjMvXz6jdHSFvcHocM-24" target="F1mjMvXz6jdHSFvcHocM-77">
          <mxGeometry relative="1" as="geometry" />
        </mxCell>
        <mxCell id="F1mjMvXz6jdHSFvcHocM-24" value="Список список свободных&lt;br&gt;&amp;nbsp;записей в дате" style="rounded=1;fillColor=#23445D;strokeColor=none;strokeWidth=2;fontFamily=Helvetica;html=1;gradientColor=none;" vertex="1" parent="1">
          <mxGeometry x="910" y="120" width="160" height="80" as="geometry" />
        </mxCell>
        <mxCell id="F1mjMvXz6jdHSFvcHocM-28" value="&lt;h5 style=&quot;text-align: justify; line-height: 100%;&quot;&gt;&lt;font style=&quot;font-size: 13px;&quot;&gt;10/07/2023&amp;nbsp; 11/07/2023&lt;/font&gt;&lt;/h5&gt;&lt;h3 style=&quot;text-align: justify; line-height: 145%; font-size: 13px;&quot;&gt;&lt;p style=&quot;font-size: 11px;&quot;&gt;&lt;sub&gt;&amp;nbsp;&amp;nbsp;&lt;/sub&gt;&lt;/p&gt;&lt;font style=&quot;font-size: 13px;&quot;&gt;12/07/2023&amp;nbsp; 13/07/2023&lt;/font&gt;&lt;/h3&gt;&lt;h3 style=&quot;line-height: 145%; font-size: 13px;&quot;&gt;&amp;nbsp;&lt;br&gt;&lt;font style=&quot;font-size: 13px;&quot;&gt;14/07/2023&amp;nbsp; 15/07/2023&lt;/font&gt;&amp;nbsp; &amp;nbsp;&lt;/h3&gt;" style="rounded=1;fillColor=#23445D;strokeColor=none;strokeWidth=2;fontFamily=Helvetica;html=1;gradientColor=none;verticalAlign=top;horizontal=1;" vertex="1" parent="1">
          <mxGeometry x="690" y="425" width="163.5" height="215" as="geometry" />
        </mxCell>
        <mxCell id="F1mjMvXz6jdHSFvcHocM-34" style="edgeStyle=orthogonalEdgeStyle;rounded=0;orthogonalLoop=1;jettySize=auto;html=1;exitX=1;exitY=0.5;exitDx=0;exitDy=0;entryX=-0.006;entryY=0.2;entryDx=0;entryDy=0;entryPerimeter=0;" edge="1" parent="1" source="uQnDdRh6O_mBgokh-bdZ-90" target="F1mjMvXz6jdHSFvcHocM-28">
          <mxGeometry relative="1" as="geometry" />
        </mxCell>
        <mxCell id="F1mjMvXz6jdHSFvcHocM-35" value="&lt;h3 style=&quot;text-align: justify; line-height: 100%;&quot;&gt;11/07/2023&lt;/h3&gt;&lt;div&gt;&lt;table&gt;&lt;tbody&gt;&lt;tr&gt;&lt;td&gt;&lt;br&gt;&lt;/td&gt;&lt;td&gt;&lt;br&gt;&lt;/td&gt;&lt;/tr&gt;&lt;/tbody&gt;&lt;/table&gt;&lt;br&gt;&lt;/div&gt;" style="rounded=1;fillColor=#23445D;strokeColor=none;strokeWidth=2;fontFamily=Helvetica;html=1;gradientColor=none;verticalAlign=top;horizontal=1;" vertex="1" parent="1">
          <mxGeometry x="920" y="425" width="163.5" height="195" as="geometry" />
        </mxCell>
        <mxCell id="F1mjMvXz6jdHSFvcHocM-45" value="" style="shape=table;startSize=0;container=1;collapsible=0;childLayout=tableLayout;" vertex="1" parent="1">
          <mxGeometry x="941.75" y="470" width="120" height="120" as="geometry" />
        </mxCell>
        <mxCell id="F1mjMvXz6jdHSFvcHocM-46" value="" style="shape=tableRow;horizontal=0;startSize=0;swimlaneHead=0;swimlaneBody=0;strokeColor=inherit;top=0;left=0;bottom=0;right=0;collapsible=0;dropTarget=0;fillColor=none;points=[[0,0.5],[1,0.5]];portConstraint=eastwest;" vertex="1" parent="F1mjMvXz6jdHSFvcHocM-45">
          <mxGeometry width="120" height="40" as="geometry" />
        </mxCell>
        <mxCell id="F1mjMvXz6jdHSFvcHocM-47" value="10:00&lt;span style=&quot;white-space: pre;&quot;&gt;&#x9;&lt;/span&gt;" style="shape=partialRectangle;html=1;whiteSpace=wrap;connectable=0;strokeColor=inherit;overflow=hidden;fillColor=none;top=0;left=0;bottom=0;right=0;pointerEvents=1;" vertex="1" parent="F1mjMvXz6jdHSFvcHocM-46">
          <mxGeometry width="60" height="40" as="geometry">
            <mxRectangle width="60" height="40" as="alternateBounds" />
          </mxGeometry>
        </mxCell>
        <mxCell id="F1mjMvXz6jdHSFvcHocM-48" value="10:30" style="shape=partialRectangle;html=1;whiteSpace=wrap;connectable=0;strokeColor=inherit;overflow=hidden;fillColor=none;top=0;left=0;bottom=0;right=0;pointerEvents=1;" vertex="1" parent="F1mjMvXz6jdHSFvcHocM-46">
          <mxGeometry x="60" width="60" height="40" as="geometry">
            <mxRectangle width="60" height="40" as="alternateBounds" />
          </mxGeometry>
        </mxCell>
        <mxCell id="F1mjMvXz6jdHSFvcHocM-49" value="" style="shape=tableRow;horizontal=0;startSize=0;swimlaneHead=0;swimlaneBody=0;strokeColor=inherit;top=0;left=0;bottom=0;right=0;collapsible=0;dropTarget=0;fillColor=none;points=[[0,0.5],[1,0.5]];portConstraint=eastwest;" vertex="1" parent="F1mjMvXz6jdHSFvcHocM-45">
          <mxGeometry y="40" width="120" height="40" as="geometry" />
        </mxCell>
        <mxCell id="F1mjMvXz6jdHSFvcHocM-50" value="11:00" style="shape=partialRectangle;html=1;whiteSpace=wrap;connectable=0;strokeColor=inherit;overflow=hidden;fillColor=none;top=0;left=0;bottom=0;right=0;pointerEvents=1;" vertex="1" parent="F1mjMvXz6jdHSFvcHocM-49">
          <mxGeometry width="60" height="40" as="geometry">
            <mxRectangle width="60" height="40" as="alternateBounds" />
          </mxGeometry>
        </mxCell>
        <mxCell id="F1mjMvXz6jdHSFvcHocM-51" value="11:30" style="shape=partialRectangle;html=1;whiteSpace=wrap;connectable=0;strokeColor=inherit;overflow=hidden;fillColor=none;top=0;left=0;bottom=0;right=0;pointerEvents=1;" vertex="1" parent="F1mjMvXz6jdHSFvcHocM-49">
          <mxGeometry x="60" width="60" height="40" as="geometry">
            <mxRectangle width="60" height="40" as="alternateBounds" />
          </mxGeometry>
        </mxCell>
        <mxCell id="F1mjMvXz6jdHSFvcHocM-52" value="" style="shape=tableRow;horizontal=0;startSize=0;swimlaneHead=0;swimlaneBody=0;strokeColor=inherit;top=0;left=0;bottom=0;right=0;collapsible=0;dropTarget=0;fillColor=none;points=[[0,0.5],[1,0.5]];portConstraint=eastwest;" vertex="1" parent="F1mjMvXz6jdHSFvcHocM-45">
          <mxGeometry y="80" width="120" height="40" as="geometry" />
        </mxCell>
        <mxCell id="F1mjMvXz6jdHSFvcHocM-53" value="14:30" style="shape=partialRectangle;html=1;whiteSpace=wrap;connectable=0;strokeColor=inherit;overflow=hidden;fillColor=none;top=0;left=0;bottom=0;right=0;pointerEvents=1;" vertex="1" parent="F1mjMvXz6jdHSFvcHocM-52">
          <mxGeometry width="60" height="40" as="geometry">
            <mxRectangle width="60" height="40" as="alternateBounds" />
          </mxGeometry>
        </mxCell>
        <mxCell id="F1mjMvXz6jdHSFvcHocM-54" value="16:30" style="shape=partialRectangle;html=1;whiteSpace=wrap;connectable=0;strokeColor=inherit;overflow=hidden;fillColor=none;top=0;left=0;bottom=0;right=0;pointerEvents=1;" vertex="1" parent="F1mjMvXz6jdHSFvcHocM-52">
          <mxGeometry x="60" width="60" height="40" as="geometry">
            <mxRectangle width="60" height="40" as="alternateBounds" />
          </mxGeometry>
        </mxCell>
        <mxCell id="F1mjMvXz6jdHSFvcHocM-58" value="" style="shape=table;startSize=0;container=1;collapsible=0;childLayout=tableLayout;" vertex="1" parent="1">
          <mxGeometry x="706.75" y="475" width="130" height="20" as="geometry" />
        </mxCell>
        <mxCell id="F1mjMvXz6jdHSFvcHocM-59" value="" style="shape=tableRow;horizontal=0;startSize=0;swimlaneHead=0;swimlaneBody=0;strokeColor=inherit;top=0;left=0;bottom=0;right=0;collapsible=0;dropTarget=0;fillColor=none;points=[[0,0.5],[1,0.5]];portConstraint=eastwest;" vertex="1" parent="F1mjMvXz6jdHSFvcHocM-58">
          <mxGeometry width="130" height="20" as="geometry" />
        </mxCell>
        <mxCell id="F1mjMvXz6jdHSFvcHocM-60" value="(1)" style="shape=partialRectangle;html=1;whiteSpace=wrap;connectable=0;strokeColor=inherit;overflow=hidden;fillColor=none;top=0;left=0;bottom=0;right=0;pointerEvents=1;" vertex="1" parent="F1mjMvXz6jdHSFvcHocM-59">
          <mxGeometry width="65" height="20" as="geometry">
            <mxRectangle width="65" height="20" as="alternateBounds" />
          </mxGeometry>
        </mxCell>
        <mxCell id="F1mjMvXz6jdHSFvcHocM-61" value="(6)" style="shape=partialRectangle;html=1;whiteSpace=wrap;connectable=0;strokeColor=inherit;overflow=hidden;fillColor=none;top=0;left=0;bottom=0;right=0;pointerEvents=1;" vertex="1" parent="F1mjMvXz6jdHSFvcHocM-59">
          <mxGeometry x="65" width="65" height="20" as="geometry">
            <mxRectangle width="65" height="20" as="alternateBounds" />
          </mxGeometry>
        </mxCell>
        <mxCell id="F1mjMvXz6jdHSFvcHocM-65" value="" style="shape=tableRow;horizontal=0;startSize=0;swimlaneHead=0;swimlaneBody=0;strokeColor=inherit;top=0;left=0;bottom=0;right=0;collapsible=0;dropTarget=0;fillColor=none;points=[[0,0.5],[1,0.5]];portConstraint=eastwest;" vertex="1" parent="1">
          <mxGeometry x="700" y="540" width="130" height="20" as="geometry" />
        </mxCell>
        <mxCell id="F1mjMvXz6jdHSFvcHocM-68" value="" style="shape=table;startSize=0;container=1;collapsible=0;childLayout=tableLayout;" vertex="1" parent="1">
          <mxGeometry x="710" y="540" width="126.75" height="20" as="geometry" />
        </mxCell>
        <mxCell id="F1mjMvXz6jdHSFvcHocM-69" value="" style="shape=tableRow;horizontal=0;startSize=0;swimlaneHead=0;swimlaneBody=0;strokeColor=inherit;top=0;left=0;bottom=0;right=0;collapsible=0;dropTarget=0;fillColor=none;points=[[0,0.5],[1,0.5]];portConstraint=eastwest;" vertex="1" parent="F1mjMvXz6jdHSFvcHocM-68">
          <mxGeometry width="126.75" height="20" as="geometry" />
        </mxCell>
        <mxCell id="F1mjMvXz6jdHSFvcHocM-70" value="(3)" style="shape=partialRectangle;html=1;whiteSpace=wrap;connectable=0;strokeColor=inherit;overflow=hidden;fillColor=none;top=0;left=0;bottom=0;right=0;pointerEvents=1;" vertex="1" parent="F1mjMvXz6jdHSFvcHocM-69">
          <mxGeometry width="64" height="20" as="geometry">
            <mxRectangle width="64" height="20" as="alternateBounds" />
          </mxGeometry>
        </mxCell>
        <mxCell id="F1mjMvXz6jdHSFvcHocM-71" value="(6)" style="shape=partialRectangle;html=1;whiteSpace=wrap;connectable=0;strokeColor=inherit;overflow=hidden;fillColor=none;top=0;left=0;bottom=0;right=0;pointerEvents=1;" vertex="1" parent="F1mjMvXz6jdHSFvcHocM-69">
          <mxGeometry x="64" width="63" height="20" as="geometry">
            <mxRectangle width="63" height="20" as="alternateBounds" />
          </mxGeometry>
        </mxCell>
        <mxCell id="F1mjMvXz6jdHSFvcHocM-72" value="" style="shape=table;startSize=0;container=1;collapsible=0;childLayout=tableLayout;" vertex="1" parent="1">
          <mxGeometry x="710" y="590" width="126.75" height="20" as="geometry" />
        </mxCell>
        <mxCell id="F1mjMvXz6jdHSFvcHocM-73" value="" style="shape=tableRow;horizontal=0;startSize=0;swimlaneHead=0;swimlaneBody=0;strokeColor=inherit;top=0;left=0;bottom=0;right=0;collapsible=0;dropTarget=0;fillColor=none;points=[[0,0.5],[1,0.5]];portConstraint=eastwest;" vertex="1" parent="F1mjMvXz6jdHSFvcHocM-72">
          <mxGeometry width="126.75" height="20" as="geometry" />
        </mxCell>
        <mxCell id="F1mjMvXz6jdHSFvcHocM-74" value="(3)" style="shape=partialRectangle;html=1;whiteSpace=wrap;connectable=0;strokeColor=inherit;overflow=hidden;fillColor=none;top=0;left=0;bottom=0;right=0;pointerEvents=1;" vertex="1" parent="F1mjMvXz6jdHSFvcHocM-73">
          <mxGeometry width="64" height="20" as="geometry">
            <mxRectangle width="64" height="20" as="alternateBounds" />
          </mxGeometry>
        </mxCell>
        <mxCell id="F1mjMvXz6jdHSFvcHocM-75" value="(6)" style="shape=partialRectangle;html=1;whiteSpace=wrap;connectable=0;strokeColor=inherit;overflow=hidden;fillColor=none;top=0;left=0;bottom=0;right=0;pointerEvents=1;" vertex="1" parent="F1mjMvXz6jdHSFvcHocM-73">
          <mxGeometry x="64" width="63" height="20" as="geometry">
            <mxRectangle width="63" height="20" as="alternateBounds" />
          </mxGeometry>
        </mxCell>
        <mxCell id="F1mjMvXz6jdHSFvcHocM-77" value="Сообщение о записи&amp;nbsp;" style="rounded=1;fillColor=#23445D;strokeColor=none;strokeWidth=2;fontFamily=Helvetica;html=1;gradientColor=none;" vertex="1" parent="1">
          <mxGeometry x="1130" y="117.5" width="160" height="82.5" as="geometry" />
        </mxCell>
        <mxCell id="F1mjMvXz6jdHSFvcHocM-79" value="&lt;p style=&quot;text-align: justify; line-height: 100%;&quot;&gt;&lt;font style=&quot;font-size: 13px;&quot;&gt;Вы успешно записаны&lt;/font&gt;&lt;/p&gt;" style="rounded=1;fillColor=#23445D;strokeColor=none;strokeWidth=2;fontFamily=Helvetica;html=1;gradientColor=none;verticalAlign=top;horizontal=1;" vertex="1" parent="1">
          <mxGeometry x="1120" y="425" width="200" height="225" as="geometry" />
        </mxCell>
        <mxCell id="F1mjMvXz6jdHSFvcHocM-80" value="" style="shape=table;startSize=0;container=1;collapsible=0;childLayout=tableLayout;" vertex="1" parent="1">
          <mxGeometry x="1130" y="470" width="140" height="130" as="geometry" />
        </mxCell>
        <mxCell id="F1mjMvXz6jdHSFvcHocM-81" value="" style="shape=tableRow;horizontal=0;startSize=0;swimlaneHead=0;swimlaneBody=0;strokeColor=inherit;top=0;left=0;bottom=0;right=0;collapsible=0;dropTarget=0;fillColor=none;points=[[0,0.5],[1,0.5]];portConstraint=eastwest;" vertex="1" parent="F1mjMvXz6jdHSFvcHocM-80">
          <mxGeometry width="140" height="43" as="geometry" />
        </mxCell>
        <mxCell id="F1mjMvXz6jdHSFvcHocM-82" value="Посмотреть все записи" style="shape=partialRectangle;html=1;whiteSpace=wrap;connectable=0;strokeColor=inherit;overflow=hidden;fillColor=none;top=0;left=0;bottom=0;right=0;pointerEvents=1;" vertex="1" parent="F1mjMvXz6jdHSFvcHocM-81">
          <mxGeometry width="70" height="43" as="geometry">
            <mxRectangle width="70" height="43" as="alternateBounds" />
          </mxGeometry>
        </mxCell>
        <mxCell id="F1mjMvXz6jdHSFvcHocM-83" value="Показать мои записи" style="shape=partialRectangle;html=1;whiteSpace=wrap;connectable=0;strokeColor=inherit;overflow=hidden;fillColor=none;top=0;left=0;bottom=0;right=0;pointerEvents=1;" vertex="1" parent="F1mjMvXz6jdHSFvcHocM-81">
          <mxGeometry x="70" width="70" height="43" as="geometry">
            <mxRectangle width="70" height="43" as="alternateBounds" />
          </mxGeometry>
        </mxCell>
        <mxCell id="F1mjMvXz6jdHSFvcHocM-84" value="" style="shape=tableRow;horizontal=0;startSize=0;swimlaneHead=0;swimlaneBody=0;strokeColor=inherit;top=0;left=0;bottom=0;right=0;collapsible=0;dropTarget=0;fillColor=none;points=[[0,0.5],[1,0.5]];portConstraint=eastwest;" vertex="1" parent="F1mjMvXz6jdHSFvcHocM-80">
          <mxGeometry y="43" width="140" height="44" as="geometry" />
        </mxCell>
        <mxCell id="F1mjMvXz6jdHSFvcHocM-85" value="Связаться с специалистом" style="shape=partialRectangle;html=1;whiteSpace=wrap;connectable=0;strokeColor=inherit;overflow=hidden;fillColor=none;top=0;left=0;bottom=0;right=0;pointerEvents=1;" vertex="1" parent="F1mjMvXz6jdHSFvcHocM-84">
          <mxGeometry width="70" height="44" as="geometry">
            <mxRectangle width="70" height="44" as="alternateBounds" />
          </mxGeometry>
        </mxCell>
        <mxCell id="F1mjMvXz6jdHSFvcHocM-86" value="В профиль" style="shape=partialRectangle;html=1;whiteSpace=wrap;connectable=0;strokeColor=inherit;overflow=hidden;fillColor=none;top=0;left=0;bottom=0;right=0;pointerEvents=1;" vertex="1" parent="F1mjMvXz6jdHSFvcHocM-84">
          <mxGeometry x="70" width="70" height="44" as="geometry">
            <mxRectangle width="70" height="44" as="alternateBounds" />
          </mxGeometry>
        </mxCell>
        <mxCell id="F1mjMvXz6jdHSFvcHocM-87" value="" style="shape=tableRow;horizontal=0;startSize=0;swimlaneHead=0;swimlaneBody=0;strokeColor=inherit;top=0;left=0;bottom=0;right=0;collapsible=0;dropTarget=0;fillColor=none;points=[[0,0.5],[1,0.5]];portConstraint=eastwest;" vertex="1" parent="F1mjMvXz6jdHSFvcHocM-80">
          <mxGeometry y="87" width="140" height="43" as="geometry" />
        </mxCell>
        <mxCell id="F1mjMvXz6jdHSFvcHocM-88" value="" style="shape=partialRectangle;html=1;whiteSpace=wrap;connectable=0;strokeColor=inherit;overflow=hidden;fillColor=none;top=0;left=0;bottom=0;right=0;pointerEvents=1;" vertex="1" parent="F1mjMvXz6jdHSFvcHocM-87">
          <mxGeometry width="70" height="43" as="geometry">
            <mxRectangle width="70" height="43" as="alternateBounds" />
          </mxGeometry>
        </mxCell>
        <mxCell id="F1mjMvXz6jdHSFvcHocM-89" value="Назад" style="shape=partialRectangle;html=1;whiteSpace=wrap;connectable=0;strokeColor=inherit;overflow=hidden;fillColor=none;top=0;left=0;bottom=0;right=0;pointerEvents=1;" vertex="1" parent="F1mjMvXz6jdHSFvcHocM-87">
          <mxGeometry x="70" width="70" height="43" as="geometry">
            <mxRectangle width="70" height="43" as="alternateBounds" />
          </mxGeometry>
        </mxCell>
        <mxCell id="F1mjMvXz6jdHSFvcHocM-92" style="edgeStyle=orthogonalEdgeStyle;rounded=0;orthogonalLoop=1;jettySize=auto;html=1;exitX=1;exitY=0.5;exitDx=0;exitDy=0;entryX=-0.012;entryY=0.554;entryDx=0;entryDy=0;entryPerimeter=0;" edge="1" parent="1" source="F1mjMvXz6jdHSFvcHocM-28" target="F1mjMvXz6jdHSFvcHocM-35">
          <mxGeometry relative="1" as="geometry" />
        </mxCell>
        <mxCell id="F1mjMvXz6jdHSFvcHocM-93" style="edgeStyle=orthogonalEdgeStyle;rounded=0;orthogonalLoop=1;jettySize=auto;html=1;entryX=-0.043;entryY=0.227;entryDx=0;entryDy=0;entryPerimeter=0;" edge="1" parent="1" source="F1mjMvXz6jdHSFvcHocM-35" target="F1mjMvXz6jdHSFvcHocM-84">
          <mxGeometry relative="1" as="geometry" />
        </mxCell>
      </root>
    </mxGraphModel>
  </diagram>
</mxfile>
